<svg xmlns="http://www.w3.org/2000/svg" xmlns:xlink="http://www.w3.org/1999/xlink" height="300px" width="300px" fill="#1A1A1A" version="1.1" x="0px" y="0px" viewBox="0 0 110 110" style="enable-background:new 0 0 110 110;" xml:space="preserve"><g><path d="M45.3,105C45.3,105,45.3,105,45.3,105c-0.5,0-1-0.2-1.4-0.6c-0.6-0.7-0.5-1.5-0.4-2.1l6.8-39.7H28.3   c-1.1,0-1.9-0.5-2.4-1.3c-0.4-0.8-0.3-1.8,0.3-2.7L61.8,6.2C62,5.9,62.6,5,63.7,5c0.5,0,1,0.2,1.4,0.6c0.6,0.7,0.5,1.5,0.4,2.1   l-6.6,35.4h22.9c1.1,0,1.9,0.5,2.4,1.3c0.4,0.8,0.4,1.8-0.2,2.7l-36.6,56.7C47,104,46.4,105,45.3,105z M29.8,59.3l20.9,0   c0.9,0,1.8,0.4,2.4,1.1c0.6,0.7,0.8,1.6,0.7,2.5l-5.8,33.6l32.4-50.1l-21.8,0c-0.9,0-1.8-0.4-2.4-1.1c-0.6-0.7-0.8-1.6-0.6-2.5   L61,13.3L29.8,59.3z"/></g></svg>
